<svg xmlns="http://www.w3.org/2000/svg" viewBox="0 0 64 64"><path fill="#53bf9f" d="M53.92 9.4v2.61c0 1.07-.87 1.94-1.94 1.94H12.02c-1.07 0-1.94-.87-1.94-1.94V9.4c0-1.06.87-1.93 1.94-1.93h39.96c1.07 0 1.94.87 1.94 1.93z"/><path fill="#e0c28b" d="M37.56 3.11v2.42H26.44V3.11c0-.64.52-1.17 1.17-1.17h8.78c.65 0 1.17.53 1.17 1.17zM14.11 15.89v44.28c0 1.04.85 1.89 1.9 1.89h31.98c1.05 0 1.9-.85 1.9-1.89V15.89H14.11zm6.87 40.51c0 .53-.43.97-.96.97a.97.97 0 0 1-.97-.97V21.55a.965.965 0 1 1 1.93 0V56.4zm7.99 0c0 .53-.43.97-.96.97a.97.97 0 0 1-.97-.97V21.55a.965.965 0 1 1 1.93 0V56.4zm8 0c0 .53-.44.97-.97.97a.97.97 0 0 1-.97-.97V21.55a.97.97 0 0 1 1.94 0V56.4zm7.98 0c0 .53-.43.97-.97.97-.53 0-.96-.44-.96-.97V21.55a.965.965 0 1 1 1.93 0V56.4z"/><path d="M55.86 9.4v2.61c0 2.14-1.74 3.88-3.88 3.88h-.15v44.28c0 2.11-1.72 3.83-3.84 3.83H17.57l-3.53-.55a3.823 3.823 0 0 1-1.87-3.28V44.55c.66-.42 1.3-.84 1.94-1.28 1.68-1.13 3.33-2.3 4.94-3.53.65-.47 1.29-.96 1.93-1.48 2.08-1.62 4.1-3.32 6.06-5.11.65-.57 1.29-1.16 1.93-1.78a98.43 98.43 0 0 0 6.06-6.19c.65-.72 1.3-1.45 1.94-2.2 1.94-2.27 3.81-4.63 5.59-7.09.47-.64.93-1.28 1.38-1.94 1.46-2.09 2.85-4.25 4.19-6.48.39-.64.77-1.29 1.14-1.94h2.71c2.14 0 3.88 1.74 3.88 3.87z" opacity=".07"/><path fill="#2b2e63" d="M51.98 5.53H39.5V3.11C39.5 1.4 38.11 0 36.39 0h-8.78c-1.72 0-3.11 1.4-3.11 3.11v2.42H12.02c-2.14 0-3.88 1.74-3.88 3.87v2.61c0 2.14 1.74 3.88 3.88 3.88h.15v44.28c0 1.39.75 2.61 1.87 3.28.57.35 1.25.55 1.97.55h31.98c2.12 0 3.84-1.72 3.84-3.83V15.89h.15c2.14 0 3.88-1.74 3.88-3.88V9.4c0-2.13-1.74-3.87-3.88-3.87zM26.44 3.11c0-.64.52-1.17 1.17-1.17h8.78c.65 0 1.17.53 1.17 1.17v2.42H26.44V3.11zm23.45 57.06c0 1.04-.85 1.89-1.9 1.89H16.01c-1.05 0-1.9-.85-1.9-1.89V15.89h35.78v44.28zm4.03-48.16c0 1.07-.87 1.94-1.94 1.94H12.02c-1.07 0-1.94-.87-1.94-1.94V9.4c0-1.06.87-1.93 1.94-1.93h39.96c1.07 0 1.94.87 1.94 1.93v2.61z"/><path fill="#2b2e63" d="M20.98 21.55V56.4c0 .53-.43.97-.96.97a.97.97 0 0 1-.97-.97V21.55a.965.965 0 1 1 1.93 0zm7.99 0V56.4c0 .53-.43.97-.96.97a.97.97 0 0 1-.97-.97V21.55a.965.965 0 1 1 1.93 0zm8 0V56.4c0 .53-.44.97-.97.97a.97.97 0 0 1-.97-.97V21.55a.97.97 0 0 1 1.94 0zm7.98 0V56.4c0 .53-.43.97-.97.97-.53 0-.96-.44-.96-.97V21.55a.965.965 0 1 1 1.93 0z"/></svg>